<svg width="13" height="16" viewBox="0 0 13 16" fill="none" xmlns="http://www.w3.org/2000/svg">
<path d="M12.3983 12.7096C12.3546 12.6815 12.0022 12.432 11.6498 11.6897C11.001 10.3173 10.8638 8.38363 10.8638 7.00195C10.8638 6.99571 10.8638 6.98947 10.8638 6.98324C10.8576 5.2117 9.80961 3.5961 8.19713 2.86316V1.79337C8.19713 0.804678 7.39245 0 6.40688 0H6.26029C5.2716 0 4.47004 0.804678 4.47004 1.79337V2.86316C2.8482 3.59922 1.80337 5.22105 1.80337 7.00195C1.80337 8.38363 1.66614 10.3173 1.0174 11.6897C0.664968 12.4382 0.309413 12.6846 0.271986 12.7096C0.0692566 12.8031 -0.0336674 13.0183 0.0131162 13.2429C0.0598999 13.4612 0.262629 13.6203 0.496547 13.6203H3.91175C3.93982 14.9333 5.02208 15.9969 6.33514 15.9969C7.6482 15.9969 8.73046 14.9302 8.75854 13.6203H12.1737C12.4077 13.6203 12.6104 13.4612 12.6572 13.2429C12.704 13.0183 12.601 12.8031 12.3983 12.7096ZM6.33514 15.0331C5.55542 15.0331 4.90668 14.4031 4.87861 13.6234H7.79167C7.7636 14.4 7.11487 15.0331 6.33514 15.0331ZM11.0759 12.6534H1.59128C1.67238 12.5255 1.75035 12.3883 1.82208 12.2448C2.44898 11.0066 2.77023 9.24133 2.77023 7.00195C2.76711 5.03392 4.36711 3.4308 6.33514 3.4308C8.30317 3.4308 9.90006 5.03392 9.90006 7.00507C9.90006 7.01131 9.90006 7.01754 9.90006 7.02378C9.90317 9.25692 10.2213 11.0129 10.8482 12.248C10.9199 12.3914 10.9979 12.5255 11.0759 12.6534ZM5.4369 1.79337C5.4369 1.33801 5.80805 0.966862 6.26029 0.966862H6.40688C6.86224 0.966862 7.23027 1.33801 7.23027 1.79337V2.55127C6.93709 2.49201 6.63456 2.46082 6.33202 2.46082C6.02949 2.46082 5.72696 2.49201 5.43378 2.55127L5.4369 1.79337Z" fill="black"/>
</svg>
